<?xml version="1.0" encoding="UTF-8" standalone="yes"?>
<svg version="1.2" width="1024" height="1024" viewBox="0 0 1024 1024" baseProfile="tiny-ps" xmlns="http://www.w3.org/2000/svg">
  <title>bimi-svg-tiny-12-ps</title>
  <defs id="defs1"/>
  <g id="g1" fill="#000000" fill-opacity="1">
    <path id="path3" d="M 480.39062,437.96484 297.41016,678.32227 V 755 H 507.5 v 102.5 h 67.37695 V 754.625 H 642.5 v -64.15625 h -67.90625 v -59.32031 h -66.84766 v 57.32031 H 372.375 L 565.33203,437.96484 Z" fill="#000000" fill-opacity="1"/>
    <path id="path9" d="m 480.75197,437.98629 -185.10958,240.35743 1.875,76.67773 h 210.08984 v 102.5 h 67.37695 v -102.875 h 67.62305 V 690.4902 H 574.70098 V 631.16989 H 507.85332 V 688.4902 H 372.48223 L 565.43926,437.98629 Z" fill="#000000" fill-opacity="1"/>
    <path id="path2" d="m 297.4082,145.64258 0,483.92383 76.1543,-98.88672 -0.86328,-120.14063 h 93.37695 l 48.66016,-63.17968 H 372.5 l 0,-137.75977 h 245.41016 l 47.03309,39.40597 -0.0424,43.76395 0.0366,15.01294 -47.03124,39.49487 h -67.30469 l -48.17383,62.55664 h 49.69727 68.58594 l 44.22656,37.08844 -10e-4,58.73338 -41.24854,34.60787 H 522.45312 L 474.60938,602.5 H 662.50391 L 727.48438,547.79471 727.4375,412.375 682.51367,374.51953 v -1.61914 l 44.83252,-33.78991 V 325.0918 l 0,-91.4707 v -19.89063 -9.07824 l -73.80908,-58.03309 -1.06641,-0.94922 z" fill="#000000" fill-opacity="1"/>
  </g>
</svg>